<svg width="800" height="600" xmlns="http://www.w3.org/2000/svg">
  <rect width="800" height="600" fill="#f5f5f5"/>
  <rect x="0" y="0" width="800" height="70" fill="#ffffff"/>
  <text x="30" y="45" font-family="monospace" font-size="24" font-weight="bold">GlyphShop</text>
  <text x="750" y="45" font-family="monospace" font-size="24" font-weight="bold" text-anchor="end">🛒</text>
  
  <text x="30" y="110" font-family="monospace" font-size="28" font-weight="bold">Featured Products</text>
  
  <rect x="0" y="130" width="800" height="60" fill="#fafafa" rx="5"/>
  <text x="30" y="170" font-family="monospace" font-size="16">All</text>
  <text x="100" y="170" font-family="monospace" font-size="16">Electronics</text>
  <text x="220" y="170" font-family="monospace" font-size="16">Accessories</text>
  <text x="340" y="170" font-family="monospace" font-size="16">Home</text>
  
  <!-- Product Grid -->
  <g transform="translate(30, 220)">
    <!-- Product 1 -->
    <rect width="170" height="250" fill="#ffffff" stroke="#eaeaea" rx="5"/>
    <rect width="170" height="120" fill="#e1e1e1" rx="5 5 0 0"/>
    <text x="10" y="140" font-family="monospace" font-size="14" font-weight="bold">Minimalist Watch</text>
    <text x="10" y="160" font-family="monospace" font-size="14" fill="#0070f3">$149.99</text>
    <rect x="10" y="180" width="70" height="30" fill="#0070f3" rx="5"/>
    <text x="20" y="200" font-family="monospace" font-size="12" fill="#ffffff">Details</text>
    <rect x="90" y="180" width="70" height="30" fill="#0070f3" rx="5"/>
    <text x="100" y="200" font-family="monospace" font-size="12" fill="#ffffff">Add</text>
  </g>
  
  <g transform="translate(220, 220)">
    <!-- Product 2 -->
    <rect width="170" height="250" fill="#ffffff" stroke="#eaeaea" rx="5"/>
    <rect width="170" height="120" fill="#e1e1e1" rx="5 5 0 0"/>
    <text x="10" y="140" font-family="monospace" font-size="14" font-weight="bold">Headphones</text>
    <text x="10" y="160" font-family="monospace" font-size="14" fill="#0070f3">$199.99</text>
    <rect x="10" y="180" width="70" height="30" fill="#0070f3" rx="5"/>
    <text x="20" y="200" font-family="monospace" font-size="12" fill="#ffffff">Details</text>
    <rect x="90" y="180" width="70" height="30" fill="#0070f3" rx="5"/>
    <text x="100" y="200" font-family="monospace" font-size="12" fill="#ffffff">Add</text>
  </g>
  
  <g transform="translate(410, 220)">
    <!-- Product 3 -->
    <rect width="170" height="250" fill="#ffffff" stroke="#eaeaea" rx="5"/>
    <rect width="170" height="120" fill="#e1e1e1" rx="5 5 0 0"/>
    <text x="10" y="140" font-family="monospace" font-size="14" font-weight="bold">Leather Wallet</text>
    <text x="10" y="160" font-family="monospace" font-size="14" fill="#0070f3">$79.99</text>
    <rect x="10" y="180" width="70" height="30" fill="#0070f3" rx="5"/>
    <text x="20" y="200" font-family="monospace" font-size="12" fill="#ffffff">Details</text>
    <rect x="90" y="180" width="70" height="30" fill="#0070f3" rx="5"/>
    <text x="100" y="200" font-family="monospace" font-size="12" fill="#ffffff">Add</text>
  </g>
  
  <g transform="translate(600, 220)">
    <!-- Product 4 -->
    <rect width="170" height="250" fill="#ffffff" stroke="#eaeaea" rx="5"/>
    <rect width="170" height="120" fill="#e1e1e1" rx="5 5 0 0"/>
    <text x="10" y="140" font-family="monospace" font-size="14" font-weight="bold">Smart Speaker</text>
    <text x="10" y="160" font-family="monospace" font-size="14" fill="#0070f3">$129.99</text>
    <rect x="10" y="180" width="70" height="30" fill="#0070f3" rx="5"/>
    <text x="20" y="200" font-family="monospace" font-size="12" fill="#ffffff">Details</text>
    <rect x="90" y="180" width="70" height="30" fill="#0070f3" rx="5"/>
    <text x="100" y="200" font-family="monospace" font-size="12" fill="#ffffff">Add</text>
  </g>
  
  <!-- Footer -->
  <rect x="0" y="550" width="800" height="50" fill="#ffffff"/>
  <text x="400" y="580" font-family="monospace" font-size="14" text-anchor="middle">© 2023 GlyphShop. Built with GlyphUI.</text>
  
  <!-- Modal Overlay Example -->
  <rect x="0" y="0" width="800" height="600" fill="rgba(0,0,0,0.2)" opacity="0.7"/>
  <rect x="200" y="100" width="400" height="400" fill="#ffffff" rx="5"/>
  <rect x="200" y="100" width="400" height="60" fill="#ffffff" rx="5 5 0 0"/>
  <text x="220" y="140" font-family="monospace" font-size="20" font-weight="bold">Product Details</text>
  <text x="580" y="140" font-family="monospace" font-size="24">×</text>
  
  <rect x="220" y="180" width="160" height="160" fill="#e1e1e1" rx="5"/>
  <g transform="translate(400, 180)">
    <text x="0" y="20" font-family="monospace" font-size="18" font-weight="bold">Minimalist Watch</text>
    <text x="0" y="50" font-family="monospace" font-size="16" fill="#0070f3">$149.99</text>
    <text x="0" y="80" font-family="monospace" font-size="14" width="180">A sleek, minimalist watch with a clean design. Perfect for everyday wear or special occasions.</text>
    <rect x="0" y="120" width="180" height="40" fill="#0070f3" rx="5"/>
    <text x="40" y="145" font-family="monospace" font-size="14" fill="#ffffff">Add to Cart</text>
  </g>
</svg> 